<?xml version="1.0" standalone="no"?><!DOCTYPE svg PUBLIC "-//W3C//DTD SVG 1.1//EN" "http://www.w3.org/Graphics/SVG/1.1/DTD/svg11.dtd"><svg t="1615988433574" class="icon" viewBox="0 0 1024 1024" version="1.1" xmlns="http://www.w3.org/2000/svg" p-id="4443" xmlns:xlink="http://www.w3.org/1999/xlink" width="200" height="200"><defs><style type="text/css"></style></defs><path d="M684.558 564.264c-25.534 0-44.69-19.153-44.69-43.597 0-24.454 19.156-44.662 44.69-44.662 24.44 0 43.615 20.208 43.615 44.662 0 24.444-20.22 43.597-43.615 43.597" p-id="4444" fill="#1296db"></path><path d="M511.133 185.73c81.927 0 158.5 22.345 223.421 60.613l77.668-60.613C726.035 127.264 622.824 93.224 511.133 93.224 400.478 93.224 296.211 127.264 211.1 185.73l76.603 60.613c65.965-38.268 142.568-60.613 223.43-60.613" p-id="4445" fill="#1296db"></path><path d="M287.702 779.039L211.099 838.576c85.111 58.475 189.378 92.516 300.033 92.516 111.69 0 214.903-34.04 301.089-92.516L734.553 779.039c-64.92 38.278-141.494 59.54-223.42 59.54-80.863 0-157.466-21.262-223.431-59.54" p-id="4446" fill="#1296db"></path><path d="M184.512 512.153c0-80.8 22.34-157.355 60.651-223.289l-60.651-76.544c-57.458 85.047-91.51 188.213-91.51 299.833 0 111.63 34.052 214.786 91.51 300.907l60.651-77.618c-38.311-65.914-60.651-141.424-60.651-223.289M778.178 735.443l59.577 77.618c58.522-86.121 92.565-189.277 92.565-300.907 0-111.62-34.043-214.786-92.565-299.833l-59.577 76.544c38.322 65.934 59.577 142.488 59.577 223.289 0 81.865-21.255 157.375-59.577 223.289M376.017 713.11c-42.57 0-79.807-11.694-112.795-36.158h-1.054v-81.865l5.323 5.31c8.508 11.705 44.67 47.854 103.202 47.854 44.68 0 48.93-32.976 48.93-47.853 0-28.701-29.794-44.662-62.771-60.594l-2.11-1.064c-43.645-21.262-92.574-44.642-92.574-107.393 0-57.42 47.874-99.934 113.85-103.117h8.498c57.457 0 86.185 21.242 91.51 25.509l1.054 1.064v70.17l-5.314-4.267c-20.23-18.06-53.198-28.7-84.046-28.7-13.852 0-26.6 2.158-35.117 6.394-13.813 6.365-20.211 17.006-20.211 32.947 0 19.144 23.395 30.839 52.124 45.736l5.313 2.138c37.247 20.178 101.073 52.08 101.073 124.379 0 30.838-12.747 62.73-32.968 80.81-20.21 18.07-49.994 28.7-81.917 28.7M602.626 715.237h-71.279V352.673l2.13-1.065c2.12-1.083 61.696-24.473 124.477-24.473 68.085 0 102.147 25.538 102.147 25.538l1.055 1.073v70.17l-4.259-3.212c-6.388-4.236-36.172-25.508-91.5-26.542h-3.204c-28.718 0-48.93 6.374-58.492 9.547l-1.075 1.054V715.237z" p-id="4447" fill="#1296db"></path></svg>