<?xml version="1.0" standalone="no"?><!DOCTYPE svg PUBLIC "-//W3C//DTD SVG 1.1//EN" "http://www.w3.org/Graphics/SVG/1.1/DTD/svg11.dtd"><svg t="1616050421778" class="icon" viewBox="0 0 1024 1024" version="1.1" xmlns="http://www.w3.org/2000/svg" p-id="588" xmlns:xlink="http://www.w3.org/1999/xlink" width="200" height="200"><defs><style type="text/css"></style></defs><path d="M931.712 495.424c-0.64 26.496-4.096 52.416-14.976 76.864-11.776 26.24-30.272 45.312-57.728 54.72-7.872 2.624-16.128 4.096-24 6.656-21.504 6.4-40.256 17.6-55.616 34.112-18.496 19.648-36.224 39.872-54.4 59.776-6.976 7.616-13.76 15.36-20.864 22.72-5.632 5.76-12.48 9.728-20.736 10.368-2.496 0.256-4.992 0.128-7.36-0.512-6.656-1.472-10.24-7.104-8.896-14.144 1.024-4.864 2.496-9.856 5.12-14.016 12.48-20.48 28.032-38.656 44.352-56 6.528-6.976 12.864-13.76 19.136-20.736 6.72-7.488 8.128-16.896 7.744-26.368-0.384-6.72-1.984-13.12-6.016-18.496-7.36-10.24-19.904-14.016-33.472-10.752-9.28 2.368-16.896 7.488-24.256 13.376-29.248 23.232-59.392 45.248-92.352 62.976-7.744 4.224-16.256 7.232-24.64 10.24-2.112 0.896-4.864 0.384-7.232-0.256-6.4-1.6-12.224-4.608-16.896-9.344-7.616-7.744-8.32-19.008-0.64-26.496 7.424-7.232 15.616-13.888 24.064-19.776 28.48-19.904 58.112-37.632 89.344-52.608 4.032-1.984 8.256-3.392 12.48-4.8 10.496-3.648 18.88-10.048 24-20.032 9.28-17.984 0-36.928-20.032-40.96-11.136-2.176-22.144-0.64-33.024 2.176C607.424 521.28 580.288 529.088 552.768 535.808 533.888 540.48 514.752 544.192 495.616 547.84 486.336 549.568 476.864 550.144 467.328 548.8c-14.528-1.92-26.112-17.408-23.424-31.616C444.928 511.808 447.552 507.712 453.184 506.24c10.944-2.88 21.888-5.632 32.768-8.704 1.92-0.512 5.248 0.896 5.504-3.072 0-0.256 1.28-0.512 1.984-0.576C510.784 491.2 528 488.192 545.408 485.76 550.656 485.12 556.032 486.08 561.28 485.632c4.608-0.448 9.344-1.152 13.632-2.752C581.184 480.384 587.584 480 593.92 478.784c15.872-2.88 31.488-5.44 47.104-8.896 7.744-1.728 14.4-6.464 20.032-12.224 9.344-9.856 8.64-24.256-1.728-33.152-7.488-6.336-16.512-9.088-25.728-11.264-24-5.44-48-10.496-71.936-16.32C543.744 392.64 526.016 387.264 509.44 378.88 505.408 376.832 501.76 374.08 498.112 371.264 496 369.664 495.04 367.36 495.104 364.48c0.064-5.056 0-10.112-0.128-15.168 0-1.984 0.768-2.816 2.688-3.008 9.792-1.152 19.648-2.24 29.376-3.648 8.96-1.28 17.984-1.984 26.944-1.152C569.664 343.04 585.216 345.536 600.32 349.824c27.264 8 54.272 16.832 81.344 24.96 13.504 4.032 26.88 8.128 40.512 11.2 19.264 4.224 38.848-8.32 43.648-27.072 2.24-9.28 0.256-17.92-3.904-26.24C755.712 320 746.432 309.504 736.192 300.096c-10.368-9.6-21.12-18.56-31.616-27.776-7.36-6.528-14.144-13.504-18.24-22.4-1.344-3.072-2.368-6.656-2.368-9.856 0.128-6.336 7.36-12.8 13.888-13.184 0.512-0.128 1.152 0.128 1.728 0.256 49.6 11.328 91.008 36.864 126.848 72.384 18.496 18.112 34.624 38.4 51.008 58.496 27.008 33.344 42.112 71.936 52.032 112.896C931.456 478.784 930.944 487.296 931.712 495.424z" p-id="589" data-spm-anchor-id="a313x.7781069.0.i0" class="" fill="#f4ea2a"></path><path d="M466.496 324.928C454.784 337.984 455.488 353.6 456.128 369.344c0.064 2.176 0.256 4.352 0.448 7.424C448.96 369.472 442.112 362.688 436.416 354.688c-4.352-6.016-9.92-10.432-17.28-11.904-12.16-2.304-21.504 2.56-28.416 12.096C381.376 367.68 379.648 381.632 386.752 396.288c7.68 15.616 17.856 29.696 27.712 43.968 7.552 11.136 15.232 22.144 23.04 33.408C419.456 484.352 406.528 498.496 404.16 520.256 401.536 515.264 398.912 510.272 396.352 505.28c-14.08-27.904-28.032-55.616-42.24-83.456C349.312 412.416 343.552 403.52 334.464 397.312 327.744 392.64 320.576 389.376 312.256 391.808 301.632 394.752 296.576 402.752 294.784 413.12 293.248 422.528 294.08 432 295.04 441.408c1.792 16.704 3.968 33.408 5.248 50.176 1.28 15.808 2.112 31.744 2.176 47.68 0.064 9.6-1.6 19.392-2.816 29.056C299.456 570.24 297.92 572.224 296.64 573.76 291.584 579.776 285.312 583.616 277.568 585.28 274.304 585.984 271.936 585.344 270.464 582.656 267.648 577.28 264.64 571.968 262.528 566.4 253.504 543.104 247.68 518.912 245.312 493.952c-3.072-32.384-2.176-64.896-2.624-97.28C242.496 383.68 241.472 370.624 240.384 357.504c-1.408-16.32-11.904-25.6-26.432-30.592-14.08-4.864-26.112-0.256-36.416 9.728-8.896 8.64-15.36 19.2-20.544 30.336-6.144 12.992-11.52 26.368-17.152 39.68C135.488 416.896 130.752 427.072 122.752 435.008 114.24 443.52 104.896 442.688 98.048 432.832 97.408 432.064 96.832 431.04 96.832 430.08 96.512 419.136 96 408 96.128 397.056c0.128-23.424 4.864-46.144 12.16-68.352 10.688-32.64 26.432-62.656 45.12-91.328 8.64-13.248 17.216-26.624 27.008-38.848 19.456-24.384 43.712-43.52 69.632-60.48 12.736-8.384 27.136-12.416 41.472-16.512C308.864 116.672 326.656 113.92 344.704 114.24c24.064 0.448 46.4 6.4 65.6 21.76 8.256 6.656 14.528 14.976 21.248 23.104C442.88 172.8 454.4 186.368 465.92 200 467.328 201.6 469.248 202.944 471.232 204.032 510.4 222.4 549.568 240.64 588.8 259.008c7.104 3.264 13.504 7.424 17.6 14.336 1.6 2.624 3.008 5.76 3.52 8.832 1.472 8.576-3.52 13.888-12.864 15.04C588.032 298.496 579.84 295.424 571.52 292.928 547.52 286.016 524.992 275.392 502.4 264.96 496.32 262.208 489.92 259.2 483.456 258.304c-14.08-1.792-33.92 6.208-38.976 22.656C441.728 289.92 443.392 298.304 448.064 306.048 452.544 313.792 458.304 320.448 466.496 324.928z" p-id="590" data-spm-anchor-id="a313x.7781069.0.i2" class="selected" fill="#1296db"></path><path d="M350.784 519.104c2.496 4.864 4.48 9.088 6.72 13.056 10.944 19.712 21.952 39.296 32.832 59.072 0.832 1.472 0.448 3.776 0.32 5.632-1.344 12.864-3.136 25.472-3.904 38.4-0.512 8.256 2.368 16 6.784 22.848 6.976 10.752 20.032 13.504 30.976 6.72 6.4-3.904 11.2-9.6 15.104-15.872 5.312-8.64 10.304-17.6 15.296-26.496 1.088-1.856 2.432-2.88 4.416-3.904 13.952-6.656 27.264-14.272 37.248-26.496 0.704-0.896 1.856-1.6 3.008-1.856 12.16-2.624 24.256-5.248 36.544-7.744 0.32-0.128 0.768 0 1.792 0C534.848 589.504 531.776 596.032 529.152 602.624 525.44 612.224 519.104 619.392 510.848 625.152 505.984 628.48 501.696 633.152 497.536 637.376c-9.664 9.856-13.696 22.272-14.272 35.904-0.128 1.728-0.768 3.648-1.664 5.12-11.456 16.64-23.296 33.152-34.304 50.112-3.968 5.888-6.528 12.992-8.768 19.776-2.56 7.744 0.576 14.976 3.712 22.016 7.744 17.344 22.912 22.848 40.64 19.776 16.512-2.88 31.168-10.624 45.44-18.88 9.6-5.76 19.008-12.032 28.544-17.728 8.192-5.12 16.768-9.152 26.368-10.88 11.776-1.984 19.648 4.736 18.88 16.768 0 0.896-0.256 1.856-0.768 2.624-7.104 10.368-13.888 20.992-21.504 30.848C561.216 817.024 537.792 835.648 512 851.52c-27.968 17.28-57.984 30.016-88.704 41.28-14.528 5.504-29.184 10.24-44.48 12.864-14.976 2.496-30.08 4.096-45.248 4.096-11.328 0-22.656 0-33.92-0.896-6.208-0.512-12.352-2.368-18.432-4.224-24.64-7.36-47.872-17.6-68.288-33.6-18.816-14.72-32.832-33.024-38.336-56.64-1.664-7.488-2.176-14.976-2.88-22.656-1.088-10.88-1.92-21.632-2.88-32.512-0.832-9.6-1.664-19.264-2.816-28.864-0.384-2.88-1.152-6.144-2.624-8.768-20.544-36.352-41.344-72.768-62.016-109.12-4.48-7.872-6.784-16.256-4.608-25.344C97.408 584.64 98.496 582.4 99.84 580.352c3.328-5.12 8-6.4 13.888-4.48C120.512 578.368 125.44 583.104 129.92 588.608c14.976 18.112 27.328 37.888 38.848 58.368 4.096 7.104 8.32 14.272 12.416 21.504 7.296 13.12 27.776 20.032 41.792 16 12.288-3.52 20.672-14.72 21.184-28.48 0.256-8.384-0.64-16.64-4.16-24.64C237.12 625.344 235.072 619.136 232.704 612.864c-0.256-0.64-0.32-1.344-0.256-2.24C245.376 627.648 262.144 630.272 280.64 624c1.728 6.4 2.752 12.736 5.248 18.496 4.544 10.624 12.288 18.112 24.192 19.904 11.264 1.856 20.032-2.752 26.496-12.032 5.248-7.36 7.872-16 8.64-25.024 1.28-14.4 2.112-28.736 2.752-43.264 0.96-19.968 1.6-40 2.368-60.16C350.336 521.344 350.528 520.704 350.784 519.104z" p-id="591" data-spm-anchor-id="a313x.7781069.0.i1" class="" fill="#d4237a"></path></svg>